<svg width="189" height="195" viewBox="0 0 189 195" fill="none" xmlns="http://www.w3.org/2000/svg">
<path d="M166.721 126.801C166.721 126.801 143.821 153.511 133.161 165.481C123.361 176.481 111.901 184.531 99.3706 188.741C73.1406 197.481 50.4506 194.461 30.9306 180.901C18.6706 171.631 9.57059 160.291 5.03059 145.971C-3.71941 117.741 2.47059 94.9412 16.9106 75.1612C38.5206 48.7412 58.5206 24.7712 65.8606 20.0312C79.0906 8.4712 94.3306 2.2212 111.481 1.0212C127.391 0.731196 141.181 3.4012 152.881 10.0012C167.091 18.1312 177.771 31.4012 184.671 52.1112C191.721 74.6812 186.521 102.371 166.721 126.801ZM126.891 76.3912C125.071 69.7912 120.771 67.3312 117.801 65.6312C112.471 62.8212 107.601 62.0112 100.491 65.7812C95.0006 69.6112 91.2906 73.8112 91.2906 73.8112C91.2906 73.8112 70.3506 96.0712 62.8906 106.891C60.9206 110.511 60.0406 114.151 60.2806 117.821C60.7606 125.541 65.2406 129.561 70.0206 132.311C78.5706 134.921 87.3706 134.211 93.3106 127.321C104.421 115.241 112.991 104.901 121.591 94.5312C126.101 88.9212 128.791 83.0012 126.901 76.3912H126.891Z" fill="url(#paint0_linear_249_199)" stroke="#0C51FF" stroke-miterlimit="10"/>
<defs>
<linearGradient id="paint0_linear_249_199" x1="26.6906" y1="166.491" x2="157.501" y2="33.3212" gradientUnits="userSpaceOnUse">
<stop offset="0.03" stop-color="#007BFF"/>
<stop offset="0.33" stop-color="#1550FF"/>
<stop offset="0.48" stop-color="#1E40FF"/>
<stop offset="0.6" stop-color="#1B45FF"/>
<stop offset="0.74" stop-color="#1354FF"/>
<stop offset="0.9" stop-color="#076CFF"/>
<stop offset="0.97" stop-color="#007BFF"/>
</linearGradient>
</defs>
</svg>
