<svg width="150" height="150" viewBox="0 0 150 150" fill="none" xmlns="http://www.w3.org/2000/svg">
<path d="M28.7601 61.9084C29.0063 62.0944 29.2509 62.2825 29.4934 62.4733C29.5905 62.5426 29.6876 62.6119 29.7877 62.6833C31.7538 64.1815 33.1268 67.0616 33.4575 69.4501C33.7746 73.1774 32.6248 76.514 30.2262 79.384C29.7074 79.9951 29.1785 80.597 28.6483 81.1982C28.319 81.5746 27.996 81.956 27.6732 82.3379C24.8621 85.6556 22.1533 88.5244 17.6013 89.1118C14.3706 89.3066 11.5141 88.6554 9.02527 86.4751C7.06285 84.6642 5.74454 82.2463 5.51994 79.5477C5.39209 75.7618 6.26232 73.1675 8.72177 70.2429C8.94654 69.9655 9.17116 69.688 9.39566 69.4104C10.1965 68.4336 11.0185 67.4753 11.8443 66.5196C12.0131 66.3235 12.1803 66.1261 12.347 65.9282C16.3791 61.1859 22.9201 57.9089 28.7601 61.9084ZM17.6706 72.9285C17.488 73.1425 17.3064 73.3573 17.1256 73.5727C16.9944 73.727 16.8631 73.8813 16.7279 74.0403C15.2078 75.718 15.2078 75.718 14.7143 77.8446C14.7671 78.3696 14.9197 78.6921 15.2228 79.1224C15.9881 79.7158 16.5826 79.8543 17.5468 79.8049C19.2094 79.5888 20.356 77.8145 21.3318 76.5909C21.6221 76.2347 21.9158 75.8882 22.22 75.5442C22.3053 75.4472 22.3906 75.3503 22.4784 75.2504C22.6448 75.062 22.8122 74.8745 22.9808 74.6881C23.643 73.9342 24.0543 73.2357 24.1618 72.215C24.0706 71.3796 23.8425 70.9087 23.2104 70.3519C20.7362 69.1148 19.1925 71.2164 17.6706 72.9285Z" fill="white"/>
<path d="M52.8664 66.3972C54.4477 67.6996 55.3794 69.3627 55.8147 71.3529C55.8147 71.5099 55.8147 71.6669 55.8147 71.8286C55.143 72.1644 54.2633 72.0306 53.5254 72.0367C53.2499 72.0436 53.2499 72.0436 52.9689 72.0507C52.793 72.052 52.6171 72.0533 52.4359 72.0547C52.2743 72.057 52.1128 72.0593 51.9463 72.0617C51.5335 71.9872 51.5335 71.9872 51.2491 71.6857C51.0668 71.3686 50.9081 71.0532 50.7605 70.7187C50.3193 69.8247 49.6958 69.3845 48.7475 69.0606C47.3714 68.7531 45.9205 68.8444 44.7153 69.6087C43.5172 70.6282 42.9227 71.8843 42.654 73.4142C42.6162 74.0019 42.6174 74.5895 42.6143 75.1782C42.6111 75.334 42.6078 75.4897 42.6044 75.6502C42.5958 77.2921 42.914 79.1139 44.0364 80.3817C45.0383 81.3338 46.0218 81.6722 47.391 81.7288C48.5905 81.6921 49.7873 81.4354 50.6515 80.5495C51.0229 80.039 51.2085 79.5236 51.4003 78.9243C51.4555 78.7534 51.5107 78.5825 51.5676 78.4065C51.6292 78.2115 51.6292 78.2115 51.692 78.0125C51.568 78.0134 51.4439 78.0142 51.3161 78.0151C50.7576 78.0183 50.1991 78.0204 49.6406 78.0225C49.4453 78.0238 49.25 78.0251 49.0488 78.0265C48.8633 78.027 48.6778 78.0275 48.4867 78.028C48.2289 78.0293 48.2289 78.0293 47.9659 78.0305C47.5694 78.0125 47.5694 78.0125 47.4108 77.854C47.3951 77.6083 47.3901 77.3619 47.3898 77.1157C47.3895 76.8922 47.3895 76.8922 47.3892 76.6641C47.3898 76.5074 47.3904 76.3506 47.391 76.1891C47.3901 75.9539 47.3901 75.9539 47.3892 75.714C47.3894 75.565 47.3896 75.416 47.3898 75.2625C47.39 75.1248 47.3901 74.9872 47.3903 74.8453C47.4108 74.5242 47.4108 74.5242 47.5694 74.3656C47.8265 74.35 48.0842 74.3453 48.3418 74.3451C48.5063 74.3446 48.6709 74.3441 48.8404 74.3436C49.109 74.3441 49.109 74.3441 49.383 74.3446C49.6566 74.3443 49.6566 74.3443 49.9357 74.3441C50.3223 74.344 50.7088 74.3443 51.0954 74.3449C51.6895 74.3458 52.2835 74.3449 52.8775 74.3439C53.2521 74.344 53.6266 74.3442 54.0011 74.3446C54.1801 74.3442 54.3592 74.3439 54.5436 74.3436C54.7905 74.3443 54.7905 74.3443 55.0423 74.3451C55.1879 74.3452 55.3336 74.3453 55.4836 74.3455C55.8147 74.3656 55.8147 74.3656 55.9732 74.5242C56.0139 75.154 56.0026 75.786 56.0029 76.417C56.0049 76.5921 56.0068 76.7671 56.0088 76.9475C56.0136 79.6221 55.2819 81.7762 53.4375 83.74C51.7731 85.3525 49.6349 86.0063 47.3613 85.9902C47.23 85.9894 47.0987 85.9887 46.9634 85.9879C44.646 85.9438 42.6166 85.1425 40.9098 83.5622C38.527 81.044 37.9 77.9135 37.8965 74.5644C37.9917 71.8387 38.8838 69.2233 40.7599 67.2C44.098 64.0964 49.1608 63.7083 52.8664 66.3972Z" fill="white"/>
<path d="M132.621 64.8145C132.777 64.8151 132.933 64.8158 133.093 64.8164C133.263 64.8167 133.432 64.817 133.606 64.8174C133.784 64.8193 133.961 64.8212 134.144 64.8232C134.41 64.8234 134.41 64.8234 134.682 64.8236C136.002 64.8307 136.002 64.8307 136.364 65.0115C136.416 68.465 136.468 71.9185 136.522 75.4766C137.874 73.8131 137.874 73.8131 139.225 72.1481C139.31 72.0432 139.395 71.9384 139.482 71.8303C139.65 71.6231 139.817 71.4159 139.985 71.2085C140.068 71.1065 140.15 71.0045 140.236 70.8994C140.343 70.7667 140.343 70.7667 140.452 70.6313C140.907 70.0916 140.907 70.0916 141.42 70.035C141.611 70.03 141.802 70.025 141.999 70.0199C142.205 70.0137 142.412 70.0076 142.625 70.0013C142.843 69.9963 143.062 69.9914 143.281 69.9864C143.501 69.9804 143.721 69.9742 143.941 69.9678C144.481 69.9529 145.021 69.9393 145.56 69.927C145.653 70.2245 145.653 70.2245 145.719 70.5612C145.507 70.874 145.507 70.874 145.184 71.2054C144.573 71.8552 144.004 72.5243 143.443 73.2178C143.115 73.6227 142.781 74.022 142.445 74.4206C142.294 74.601 142.294 74.601 142.14 74.7851C141.939 75.0249 141.737 75.264 141.534 75.5024C141.442 75.613 141.35 75.7237 141.254 75.8378C141.13 75.9855 141.13 75.9855 141.003 76.1363C140.775 76.4692 140.667 76.6577 140.645 77.0623C140.848 77.4877 140.848 77.4877 141.165 77.9269C141.281 78.0987 141.397 78.2705 141.517 78.4475C141.646 78.6332 141.775 78.819 141.904 79.0047C142.033 79.1952 142.163 79.3858 142.292 79.5767C142.559 79.9702 142.827 80.3631 143.096 80.7554C143.718 81.6617 144.333 82.5723 144.946 83.484C145.056 83.6448 145.165 83.8055 145.279 83.971C145.378 84.1194 145.478 84.2677 145.581 84.4206C145.67 84.5502 145.758 84.6799 145.848 84.8136C146.036 85.149 146.036 85.149 146.036 85.6246C141.896 86.1506 141.896 86.1506 140.696 85.3362C139.993 84.5723 139.547 83.6702 139.113 82.7343C138.797 82.0806 138.399 81.4946 137.989 80.8975C137.924 80.7971 137.86 80.6968 137.793 80.5933C137.642 80.3618 137.48 80.1381 137.315 79.9164C136.992 79.8874 136.992 79.8874 136.745 80.0823C136.406 80.5545 136.455 80.9674 136.447 81.5429C136.443 81.7103 136.443 81.7103 136.439 81.881C136.432 82.237 136.427 82.5929 136.423 82.9489C136.417 83.306 136.411 83.6631 136.404 84.0202C136.397 84.3434 136.393 84.6666 136.389 84.9898C136.364 85.4661 136.364 85.4661 136.205 85.6246C135.902 85.6405 135.597 85.6454 135.293 85.6457C135.109 85.6459 134.924 85.6461 134.734 85.6463C134.539 85.6457 134.344 85.6451 134.144 85.6445C133.949 85.6451 133.755 85.6457 133.554 85.6463C133.369 85.6461 133.185 85.6459 132.994 85.6457C132.823 85.6455 132.653 85.6453 132.477 85.6452C132.083 85.6246 132.083 85.6246 131.924 85.4661C131.908 85.204 131.903 84.9412 131.903 84.6786C131.902 84.5081 131.901 84.3376 131.901 84.1619C131.901 83.9731 131.901 83.7844 131.901 83.59C131.9 83.3925 131.9 83.1951 131.899 82.9916C131.898 82.4484 131.898 81.9053 131.898 81.3621C131.897 80.9093 131.897 80.4565 131.896 80.0038C131.895 78.9359 131.895 77.868 131.895 76.8002C131.895 75.6971 131.893 74.594 131.891 73.4909C131.888 72.5452 131.888 71.5995 131.888 70.6538C131.888 70.0883 131.887 69.5229 131.886 68.9575C131.884 68.3272 131.885 67.697 131.886 67.0667C131.884 66.7841 131.884 66.7841 131.883 66.4958C131.883 66.3248 131.884 66.1538 131.885 65.9777C131.885 65.8285 131.885 65.6793 131.885 65.5256C131.942 65.0051 132.105 64.8667 132.621 64.8145Z" fill="white"/>
<path d="M127.219 70.952C128.39 72.0199 129.015 73.4881 129.099 75.0602C129.11 75.7191 129.111 76.3773 129.107 77.0362C129.107 77.2793 129.107 77.5224 129.107 77.7655C129.107 78.2724 129.105 78.7792 129.103 79.286C129.1 79.9369 129.1 80.5877 129.1 81.2386C129.1 81.7393 129.099 82.24 129.098 82.7407C129.097 82.9809 129.097 83.221 129.097 83.4612C129.097 83.7952 129.095 84.1292 129.094 84.4632C129.093 84.6534 129.092 84.8436 129.092 85.0395C129.071 85.4654 129.071 85.4654 128.912 85.624C128.607 85.6378 128.301 85.6409 127.995 85.6395C127.716 85.6387 127.716 85.6387 127.433 85.6379C127.237 85.6366 127.042 85.6353 126.841 85.6339C126.547 85.6328 126.547 85.6328 126.247 85.6317C125.761 85.6298 125.275 85.6272 124.789 85.624C124.574 85.1931 124.609 84.8513 124.606 84.3689C124.604 84.172 124.603 83.9751 124.601 83.7723C124.6 83.6667 124.6 83.5612 124.599 83.4524C124.597 83.1217 124.594 82.7911 124.591 82.4604C124.581 81.5202 124.572 80.58 124.567 79.6397C124.564 79.0646 124.558 78.4896 124.551 77.9145C124.549 77.6958 124.548 77.477 124.547 77.2583C124.546 76.9513 124.542 76.6444 124.538 76.3374C124.537 76.163 124.536 75.9886 124.534 75.8089C124.442 75.0776 124.214 74.5368 123.63 74.0787C122.805 73.714 122.143 73.6796 121.284 73.9226C120.701 74.1678 120.344 74.5977 120.014 75.1232C119.831 75.5837 119.831 75.9669 119.826 76.4625C119.823 76.6619 119.821 76.8613 119.818 77.0668C119.817 77.2837 119.815 77.5006 119.814 77.7175C119.811 77.9402 119.809 78.1629 119.806 78.3856C119.798 78.9707 119.793 79.5558 119.788 80.141C119.78 81.0793 119.769 82.0176 119.758 82.9559C119.754 83.2842 119.752 83.6124 119.749 83.9407C119.747 84.1386 119.745 84.3365 119.743 84.5405C119.741 84.7157 119.74 84.8909 119.738 85.0714C119.715 85.4654 119.715 85.4654 119.557 85.624C119.253 85.6398 118.949 85.6447 118.645 85.645C118.46 85.6452 118.276 85.6454 118.085 85.6457C117.891 85.645 117.696 85.6444 117.496 85.6438C117.204 85.6447 117.204 85.6447 116.906 85.6457C116.721 85.6454 116.536 85.6452 116.346 85.645C116.175 85.6449 116.004 85.6447 115.828 85.6445C115.434 85.624 115.434 85.624 115.276 85.4654C115.26 84.9933 115.254 84.5248 115.255 84.0526C115.255 83.9044 115.255 83.7561 115.254 83.6034C115.254 83.1108 115.254 82.6183 115.255 82.1257C115.254 81.785 115.254 81.4443 115.254 81.1037C115.254 80.3887 115.254 79.6736 115.255 78.9586C115.256 78.0399 115.255 77.1211 115.254 76.2023C115.254 75.4986 115.254 74.7948 115.254 74.091C115.255 73.7521 115.254 73.4133 115.254 73.0744C115.254 72.6017 115.254 72.129 115.255 71.6562C115.255 71.5147 115.254 71.3732 115.254 71.2274C115.258 70.2615 115.258 70.2615 115.434 70.0849C115.917 70.0242 116.405 70.0102 116.891 69.9858C117.026 69.9776 117.161 69.9694 117.3 69.961C117.432 69.954 117.564 69.9471 117.701 69.9399C117.821 69.9335 117.941 69.927 118.065 69.9203C118.447 69.9263 118.447 69.9263 119.398 70.0849C119.451 70.7651 119.503 71.4453 119.557 72.1462C119.766 71.8976 119.975 71.6491 120.191 71.393C122.057 69.319 125.052 69.1766 127.219 70.952Z" fill="white"/>
<path d="M69.9512 71.2939C71.533 72.6101 72.2875 74.2527 72.622 76.2676C72.6666 76.7839 72.675 77.2955 72.6715 77.8136C72.6704 78.0209 72.6704 78.0209 72.6692 78.2325C72.626 80.632 71.9561 82.3993 70.3154 84.1486C68.626 85.7304 66.7121 86.0621 64.4789 85.995C62.9403 85.9079 61.7103 85.3789 60.5712 84.3543C60.41 84.2175 60.41 84.2175 60.2455 84.078C58.5748 82.5587 58.0252 80.5537 57.8955 78.3726C57.8003 76.0392 58.3243 73.7417 59.937 71.9864C62.6114 69.2362 66.877 68.966 69.9512 71.2939ZM63.3064 74.3153C62.3626 75.5634 62.2108 77.1319 62.3154 78.646C62.4968 79.8738 62.7244 80.8978 63.5839 81.8173C64.3716 82.3851 65.1826 82.4063 66.1209 82.2929C66.9195 81.9735 67.495 81.3367 67.8453 80.5572C68.1669 79.6399 68.2551 78.8216 68.2417 77.8532C68.2435 77.7203 68.2454 77.5875 68.2473 77.4506C68.2407 76.0324 67.9116 74.9119 66.9137 73.8891C65.7067 73.0844 64.3234 73.3215 63.3064 74.3153Z" fill="white"/>
<path d="M94.1065 64.8302C94.2834 64.83 94.4603 64.8298 94.6426 64.8296C94.9221 64.8305 94.9221 64.8305 95.2072 64.8315C95.3929 64.8308 95.5786 64.8302 95.7699 64.8296C96.0355 64.8299 96.0355 64.8299 96.3066 64.8302C96.47 64.8304 96.6334 64.8306 96.8017 64.8308C97.1991 64.8513 97.1991 64.8513 97.5162 65.0098C97.5162 70.5564 97.5162 76.1029 97.5162 81.8175C100.237 81.8175 102.958 81.8175 105.761 81.8175C106.024 82.0797 105.941 82.3888 105.941 82.749C105.941 82.9052 105.942 83.0613 105.942 83.2222C105.941 83.3865 105.94 83.5509 105.94 83.7202C105.94 83.8845 105.941 84.0489 105.942 84.2182C105.942 84.3743 105.941 84.5305 105.941 84.6914C105.941 84.8357 105.941 84.98 105.941 85.1287C105.92 85.4644 105.92 85.4644 105.761 85.6229C105.372 85.6389 104.986 85.6445 104.596 85.6435C104.474 85.6437 104.352 85.644 104.227 85.6443C103.822 85.645 103.416 85.6445 103.011 85.644C102.731 85.6441 102.451 85.6443 102.171 85.6445C101.583 85.6447 100.994 85.6444 100.406 85.6436C99.6508 85.6427 98.8952 85.6432 98.1396 85.6442C97.5607 85.6448 96.9818 85.6446 96.4029 85.6442C96.1242 85.6441 95.8455 85.6442 95.5668 85.6446C95.178 85.645 94.7892 85.6444 94.4004 85.6435C94.2841 85.6438 94.1678 85.6441 94.048 85.6444C93.2532 85.6411 93.2532 85.6411 93.0765 85.4644C93.0609 85.1999 93.0565 84.9348 93.0564 84.6699C93.0559 84.4978 93.0555 84.3257 93.055 84.1483C93.0553 83.9579 93.0556 83.7675 93.056 83.5712C93.0557 83.372 93.0554 83.1727 93.0551 82.9674C93.0544 82.4193 93.0547 81.8712 93.0552 81.3232C93.0556 80.7508 93.0552 80.1784 93.055 79.6061C93.0547 78.6447 93.0551 77.6834 93.0558 76.722C93.0567 75.609 93.0564 74.496 93.0555 73.383C93.0548 72.4291 93.0547 71.4752 93.0551 70.5213C93.0554 69.9508 93.0554 69.3803 93.0549 68.8099C93.0543 68.1742 93.0551 67.5386 93.056 66.903C93.0556 66.7125 93.0553 66.5221 93.055 66.3259C93.0554 66.1538 93.0559 65.9817 93.0564 65.8044C93.0564 65.6539 93.0565 65.5034 93.0565 65.3484C93.0964 64.6721 93.5262 64.8309 94.1065 64.8302Z" fill="white"/>
<path d="M91.1733 64.3756C91.3253 64.8584 91.331 65.172 91.2086 65.6614C91.1795 65.781 91.1504 65.9006 91.1204 66.0238C91.0888 66.147 91.0572 66.2703 91.0247 66.3972C90.9937 66.523 90.9628 66.6487 90.9309 66.7782C90.8544 67.0876 90.7762 67.3965 90.6977 67.7054C90.176 67.8233 89.7056 67.8786 89.1715 67.864C88.7077 67.8513 88.4524 67.8724 88.0021 68.0225C87.8974 68.7027 87.7928 69.383 87.685 70.0838C88.6792 70.0838 89.6733 70.0838 90.6977 70.0838C90.7019 70.6355 90.7051 71.1871 90.7076 71.7388C90.7089 71.8963 90.7102 72.0538 90.7116 72.2161C90.7121 72.3658 90.7126 72.5155 90.7131 72.6698C90.714 72.8084 90.7148 72.9471 90.7157 73.09C90.6977 73.4136 90.6977 73.4136 90.5391 73.5722C90.3262 73.5859 90.1126 73.5892 89.8993 73.5877C89.771 73.5872 89.6427 73.5867 89.5106 73.5861C89.3758 73.5848 89.241 73.5835 89.1021 73.5821C88.9667 73.5814 88.8313 73.5807 88.6918 73.5799C88.3562 73.5781 88.0206 73.5752 87.685 73.5722C87.6853 73.7208 87.6857 73.8695 87.686 74.0226C87.6892 75.4203 87.6916 76.8179 87.6932 78.2156C87.694 78.9343 87.6951 79.6529 87.6969 80.3715C87.6986 81.0645 87.6996 81.7574 87.7 82.4503C87.7003 82.7153 87.7009 82.9803 87.7017 83.2452C87.7029 83.6151 87.703 83.9849 87.703 84.3547C87.7035 84.4653 87.7041 84.576 87.7047 84.69C87.7031 85.4463 87.7031 85.4463 87.5264 85.6229C87.2209 85.6368 86.9149 85.6399 86.6091 85.6384C86.4236 85.6379 86.2381 85.6374 86.047 85.6369C85.8517 85.6355 85.6564 85.6342 85.4552 85.6328C85.1613 85.6318 85.1613 85.6318 84.8615 85.6307C84.3756 85.6288 83.8897 85.6262 83.4038 85.6229C83.1671 85.1495 83.2263 84.7207 83.2272 84.1927C83.2272 84.0782 83.2272 83.9637 83.2271 83.8458C83.2273 83.4665 83.2285 83.0873 83.2297 82.7081C83.23 82.4455 83.2303 82.1829 83.2304 81.9203C83.231 81.2284 83.2326 80.5366 83.2343 79.8448C83.236 79.1391 83.2367 78.4334 83.2375 77.7276C83.2392 76.3425 83.2419 74.9573 83.2452 73.5722C82.9904 73.575 82.9904 73.575 82.7305 73.5778C82.509 73.5793 82.2874 73.5807 82.0659 73.5821C81.9538 73.5834 81.8417 73.5848 81.7262 73.5861C81.4397 73.5875 81.1532 73.5805 80.8668 73.5722C80.6148 73.3202 80.6876 73.0586 80.6872 72.71C80.687 72.5682 80.6868 72.4263 80.6865 72.2802C80.6875 72.0563 80.6875 72.0563 80.6884 71.828C80.6878 71.6788 80.6872 71.5296 80.6865 71.3759C80.6867 71.234 80.687 71.0922 80.6872 70.946C80.6874 70.7495 80.6874 70.7495 80.6877 70.549C80.7082 70.2424 80.7082 70.2424 80.8668 70.0838C81.2944 70.0722 81.7178 70.0692 82.1452 70.0739C82.3256 70.075 82.3256 70.075 82.5097 70.0761C82.8077 70.078 83.1058 70.0808 83.4038 70.0838C83.3515 69.9792 83.2991 69.8745 83.2452 69.7667C83.2337 68.0546 83.4339 66.5558 84.6227 65.2675C86.4126 63.6237 88.9617 63.6041 91.1733 64.3756Z" fill="white"/>
<path d="M76.3092 64.8148C76.4707 64.8151 76.6323 64.8154 76.7988 64.8157C76.9673 64.8177 77.1358 64.8196 77.3095 64.8216C77.4786 64.8217 77.6477 64.8218 77.822 64.8219C79.0785 64.8291 79.0785 64.8291 79.4401 65.0099C79.4438 67.6741 79.4466 70.3383 79.4484 73.0025C79.4492 74.2395 79.4503 75.4764 79.4521 76.7134C79.4537 77.7911 79.4547 78.8688 79.4551 79.9466C79.4553 80.5176 79.4558 81.0886 79.4569 81.6596C79.4582 82.296 79.4582 82.9324 79.4581 83.5688C79.4587 83.7595 79.4593 83.9502 79.4599 84.1466C79.4597 84.319 79.4594 84.4913 79.4592 84.6688C79.4594 84.8195 79.4595 84.9702 79.4597 85.1255C79.4401 85.4644 79.4401 85.4644 79.2816 85.623C78.978 85.6388 78.6738 85.6437 78.3698 85.6441C78.1851 85.6443 78.0003 85.6445 77.8099 85.6447C77.6153 85.6441 77.4208 85.6435 77.2203 85.6428C77.0257 85.6434 76.8311 85.6441 76.6306 85.6447C76.4458 85.6445 76.2611 85.6443 76.0707 85.6441C75.8998 85.6439 75.7289 85.6437 75.5529 85.6435C75.159 85.623 75.159 85.623 75.0004 85.4644C74.9841 85.2024 74.979 84.9396 74.9781 84.677C74.9772 84.5065 74.9763 84.3359 74.9754 84.1602C74.9752 83.9715 74.975 83.7828 74.9748 83.5884C74.9741 83.3909 74.9733 83.1934 74.9725 82.99C74.9705 82.4468 74.9694 81.9036 74.9687 81.3605C74.9682 81.0215 74.9675 80.6825 74.9668 80.3435C74.9647 79.2838 74.9631 78.2242 74.9625 77.1646C74.9618 75.9395 74.959 74.7144 74.9544 73.4893C74.951 72.5436 74.9494 71.5979 74.9492 70.6521C74.949 70.0867 74.9481 69.5213 74.9453 68.9559C74.9422 68.3256 74.9428 67.6953 74.9439 67.0651C74.9424 66.8767 74.941 66.6883 74.9395 66.4942C74.9408 66.2377 74.9408 66.2377 74.9421 65.976C74.9419 65.8269 74.9417 65.6777 74.9414 65.524C74.9609 65.4067 74.9803 65.2893 75.0004 65.1685C75.5278 64.8169 75.695 64.8121 76.3092 64.8148Z" fill="white"/>
<path d="M109.051 70.0631C109.236 70.0629 109.421 70.0627 109.611 70.0625C109.806 70.0631 110 70.0637 110.201 70.0644C110.492 70.0634 110.492 70.0634 110.79 70.0625C111.067 70.0628 111.067 70.0628 111.35 70.0631C111.521 70.0633 111.692 70.0635 111.868 70.0637C112.262 70.0842 112.262 70.0842 112.42 70.2427C112.436 70.7149 112.442 71.1833 112.441 71.6556C112.441 71.8038 112.442 71.952 112.442 72.1048C112.443 72.5973 112.442 73.0899 112.442 73.5825C112.442 73.9231 112.442 74.2638 112.442 74.6045C112.442 75.3195 112.442 76.0345 112.441 76.7495C112.44 77.6683 112.441 78.5871 112.442 79.5058C112.442 80.2096 112.442 80.9134 112.442 81.6171C112.442 81.956 112.442 82.2949 112.442 82.6338C112.442 83.1065 112.442 83.5792 112.441 84.0519C112.441 84.1934 112.442 84.3349 112.442 84.4808C112.439 85.4466 112.439 85.4466 112.262 85.6233C111.958 85.6391 111.654 85.644 111.35 85.6443C111.165 85.6446 110.981 85.6448 110.79 85.645C110.596 85.6444 110.401 85.6437 110.201 85.6431C109.909 85.644 109.909 85.644 109.611 85.645C109.426 85.6448 109.241 85.6446 109.051 85.6443C108.88 85.6442 108.709 85.644 108.533 85.6438C108.139 85.6233 108.139 85.6233 107.981 85.4647C107.965 84.9926 107.959 84.5241 107.96 84.0519C107.96 83.9037 107.96 83.7554 107.959 83.6027C107.959 83.1101 107.959 82.6176 107.96 82.125C107.96 81.7843 107.959 81.4437 107.959 81.103C107.959 80.388 107.959 79.673 107.96 78.9579C107.961 78.0392 107.96 77.1204 107.959 76.2017C107.959 75.4979 107.959 74.7941 107.96 74.0903C107.96 73.7515 107.959 73.4126 107.959 73.0737C107.959 72.601 107.959 72.1283 107.96 71.6556C107.96 71.514 107.96 71.3725 107.959 71.2267C107.963 70.0643 107.963 70.0643 109.051 70.0631Z" fill="white"/>
<path d="M111.47 64.0586C112.005 64.502 112.509 64.9722 112.65 65.6758C112.689 66.4762 112.62 66.9865 112.114 67.6262C111.594 68.1434 111.13 68.3966 110.404 68.5008C109.587 68.4952 109.001 68.2246 108.398 67.6857C107.997 66.9751 107.705 66.2702 107.913 65.4509C108.25 64.697 108.666 64.2869 109.409 63.9C110.135 63.6579 110.764 63.7998 111.47 64.0586Z" fill="white"/>
<path d="M132.622 64.8145C132.777 64.8151 132.933 64.8158 133.094 64.8164C133.263 64.8167 133.432 64.817 133.606 64.8174C133.784 64.8193 133.961 64.8212 134.144 64.8232C134.41 64.8234 134.41 64.8234 134.682 64.8236C136.002 64.8307 136.002 64.8307 136.364 65.0115C136.416 68.465 136.469 71.9185 136.523 75.4767C137.203 74.6394 137.883 73.8022 138.584 72.9397C138.898 72.5734 139.212 72.2071 139.535 71.8297C139.535 72.4951 139.163 72.7928 138.742 73.2667C138.582 73.4509 138.422 73.6352 138.262 73.8198C138.182 73.9115 138.102 74.0032 138.02 74.0977C137.589 74.6038 137.188 75.1336 136.785 75.6625C136.523 75.9523 136.523 75.9523 136.047 76.1109C136.047 72.5004 136.047 68.89 136.047 65.1701C134.791 65.1701 133.535 65.1701 132.241 65.1701C132.241 71.8678 132.241 78.5654 132.241 85.4661C132.137 85.4661 132.032 85.4661 131.924 85.4661C131.917 82.8253 131.911 80.1845 131.908 77.5437C131.906 76.3176 131.904 75.0915 131.9 73.8654C131.897 72.797 131.895 71.7286 131.894 70.6602C131.894 70.0943 131.893 69.5283 131.891 68.9624C131.888 68.3313 131.888 67.7003 131.888 67.0692C131.887 66.8806 131.886 66.6919 131.885 66.4976C131.885 66.3264 131.886 66.1551 131.886 65.9787C131.886 65.8294 131.886 65.68 131.885 65.5261C131.942 65.0052 132.105 64.8668 132.622 64.8145Z" fill="white"/>
<path d="M48.3413 74.3445C48.5058 74.344 48.6704 74.3435 48.8399 74.3429C49.1085 74.3434 49.1085 74.3434 49.3825 74.3439C49.5649 74.3438 49.7473 74.3436 49.9352 74.3435C50.3218 74.3434 50.7084 74.3436 51.0949 74.3443C51.689 74.3452 52.283 74.3443 52.877 74.3433C53.2516 74.3434 53.6261 74.3436 54.0006 74.3439C54.1796 74.3436 54.3587 74.3433 54.5431 74.3429C54.7077 74.3434 54.8722 74.3439 55.0418 74.3445C55.1874 74.3446 55.3331 74.3447 55.4831 74.3448C55.8142 74.365 55.8142 74.365 55.9727 74.5235C55.9885 74.8044 55.9935 75.0859 55.9938 75.3671C55.9941 75.6271 55.9941 75.6271 55.9944 75.8924C55.9938 76.0751 55.9932 76.2578 55.9925 76.4461C55.9935 76.7147 55.9935 76.7147 55.9944 76.9887C55.9934 77.8748 55.9735 78.7251 55.8142 79.5975C55.7095 79.5975 55.6049 79.5975 55.497 79.5975C55.5494 77.9754 55.6017 76.3534 55.6556 74.6821C53.0393 74.6821 50.423 74.6821 47.7275 74.6821C47.7275 75.6763 47.7275 76.6705 47.7275 77.6948C49.0879 77.6948 50.4484 77.6948 51.8501 77.6948C51.8501 78.1134 51.8501 78.532 51.8501 78.9633C51.7978 78.9633 51.7454 78.9633 51.6915 78.9633C51.6915 78.6493 51.6915 78.3354 51.6915 78.0119C51.5054 78.0132 51.5054 78.0132 51.3156 78.0144C50.7571 78.0177 50.1986 78.0198 49.6401 78.0218C49.4448 78.0232 49.2495 78.0245 49.0483 78.0258C48.8628 78.0264 48.6773 78.0269 48.4862 78.0274C48.2284 78.0286 48.2284 78.0286 47.9654 78.0299C47.5689 78.0119 47.5689 78.0119 47.4104 77.8534C47.3947 77.6076 47.3896 77.3612 47.3893 77.115C47.3891 76.966 47.3889 76.817 47.3887 76.6635C47.3893 76.5067 47.3899 76.35 47.3905 76.1884C47.3899 76.0317 47.3893 75.8749 47.3887 75.7134C47.3889 75.5644 47.3891 75.4154 47.3893 75.2618C47.3895 75.1242 47.3896 74.9865 47.3898 74.8447C47.43 74.2167 47.7984 74.3449 48.3413 74.3445Z" fill="white"/>
<path d="M83.4038 68.498C83.4561 68.498 83.5084 68.498 83.5623 68.498C83.5623 69.0736 83.5623 69.6492 83.5623 70.2422C82.7251 70.2422 81.8879 70.2422 81.0253 70.2422C81.0253 71.2364 81.0253 72.2306 81.0253 73.2549C81.8626 73.2549 82.6998 73.2549 83.5623 73.2549C83.5623 77.284 83.5623 81.3131 83.5623 85.4642C83.4577 85.4119 83.353 85.3596 83.2452 85.3057C83.2452 81.4336 83.2452 77.5615 83.2452 73.572C82.4603 73.572 81.6755 73.572 80.8668 73.572C80.6148 73.32 80.6876 73.0585 80.6872 72.7099C80.687 72.568 80.6868 72.4262 80.6865 72.28C80.6875 72.0562 80.6875 72.0562 80.6884 71.8279C80.6878 71.6786 80.6872 71.5294 80.6865 71.3757C80.6867 71.2339 80.687 71.092 80.6872 70.9459C80.6874 70.7493 80.6874 70.7493 80.6877 70.5488C80.7082 70.2422 80.7082 70.2422 80.8668 70.0837C81.2944 70.0721 81.7178 70.069 82.1452 70.0738C82.3256 70.0748 82.3256 70.0748 82.5097 70.0759C82.8077 70.0778 83.1058 70.0806 83.4038 70.0837C83.3515 69.979 83.2991 69.8744 83.2452 69.7665C83.2254 69.2017 83.2254 69.2017 83.2452 68.6566C83.2975 68.6043 83.3499 68.552 83.4038 68.498Z" fill="white"/>
<path d="M87.3672 73.2559C88.4137 73.2559 89.4602 73.2559 90.5384 73.2559C90.5384 73.3605 90.5384 73.4652 90.5384 73.573C89.5966 73.573 88.6547 73.573 87.6843 73.573C87.6843 77.4974 87.6843 81.4218 87.6843 85.4652C87.5797 85.4652 87.475 85.4652 87.3672 85.4652C87.3672 81.4361 87.3672 77.407 87.3672 73.2559Z" fill="white"/>
<path d="M44.5567 65.3285C44.4056 65.4013 44.2546 65.4741 44.0989 65.549C43.898 65.6473 43.6971 65.7455 43.4963 65.8439C43.397 65.8915 43.2978 65.9391 43.1956 65.9882C42.5794 66.2914 42.0789 66.637 41.544 67.0727C41.4393 67.0727 41.3347 67.0727 41.2268 67.0727C41.1745 67.2297 41.1222 67.3867 41.0683 67.5484C40.9636 67.5484 40.859 67.5484 40.7512 67.5484C40.7115 67.6322 40.6719 67.716 40.631 67.8024C40.4811 68.0917 40.3175 68.3739 40.1479 68.6521C39.189 70.2334 38.6585 71.7313 38.3727 73.5738C38.3204 73.5738 38.2681 73.5738 38.2142 73.5738C37.9636 71.6432 38.8603 69.6922 40.0153 68.1882C40.1012 68.0817 40.187 67.9752 40.2755 67.8655C40.3965 67.6987 40.5175 67.532 40.6422 67.3601C41.495 66.4676 43.2559 64.893 44.5567 65.3285Z" fill="white"/>
<path d="M9.83008 86.8926C10.4811 87.1378 11.0863 87.4437 11.7031 87.7647C13.3212 88.5816 14.8664 88.7506 16.6483 88.9539C16.6483 88.8492 16.6483 88.7446 16.6483 88.6368C16.7366 88.6386 16.8249 88.6404 16.9158 88.6423C17.742 88.6521 18.5262 88.5971 19.3438 88.4782C19.3438 88.5829 19.3438 88.6875 19.3438 88.7953C16.6588 89.4711 13.7163 89.3334 11.2571 88.0025C10.7675 87.7046 10.2848 87.4005 9.83008 87.0511C9.83008 86.9988 9.83008 86.9465 9.83008 86.8926Z" fill="white"/>
<path d="M49.9473 65.1699C51.5005 65.2375 52.8824 66.2749 53.9113 67.3898C55.208 69.0594 55.208 69.0594 55.1346 69.6673C55.0972 69.7529 55.0598 69.8386 55.0213 69.9268C54.9636 69.8138 54.906 69.7007 54.8466 69.5843C53.6924 67.3854 52.2661 66.2503 49.9473 65.3285C49.9473 65.2762 49.9473 65.2238 49.9473 65.1699Z" fill="white"/>
<path d="M22.535 60.2246C22.7118 60.2248 22.7118 60.2248 22.8922 60.225C24.1147 60.2385 25.3902 60.2845 26.4792 60.8886C26.0887 61.0839 25.8006 61.0585 25.3693 61.0472C25.3693 60.9425 25.3693 60.8379 25.3693 60.7301C25.1076 60.7824 24.846 60.8347 24.5765 60.8886C24.5765 60.784 24.5765 60.6793 24.5765 60.5715C23.1113 60.6238 21.6462 60.6762 20.1367 60.7301C20.189 60.6254 20.2414 60.5208 20.2953 60.4129C21.0351 60.2353 21.7777 60.2238 22.535 60.2246Z" fill="white"/>
<path d="M40.9082 83.2461C41.359 83.4542 41.7092 83.6898 42.0875 84.0092C42.7981 84.5565 43.5641 84.8379 44.404 85.1365C44.7902 85.2774 45.1446 85.4313 45.5065 85.6245C43.8044 85.7725 42.5715 84.8718 41.2687 83.8841C41.0902 83.7252 41.0902 83.7252 40.9082 83.5632C40.9082 83.4586 40.9082 83.3539 40.9082 83.2461Z" fill="white"/>
<path d="M51.3745 79.123C51.4792 79.123 51.5838 79.123 51.6917 79.123C51.3951 80.3835 50.8686 80.9899 49.7734 81.6731C49.4718 81.8186 49.4718 81.8186 48.9961 81.8186C48.9961 81.714 48.9961 81.6093 48.9961 81.5015C49.1197 81.4494 49.1197 81.4494 49.2457 81.3962C50.2334 80.9471 50.804 80.4709 51.2655 79.46C51.3015 79.3488 51.3375 79.2376 51.3745 79.123Z" fill="white"/>
<path d="M67.5475 80.8672C67.6521 80.9195 67.7568 80.9718 67.8646 81.0257C67.3986 81.8801 66.9007 82.3176 65.9619 82.6114C65.5228 82.6577 65.1366 82.643 64.6934 82.6114C64.6934 82.559 64.6934 82.5067 64.6934 82.4528C64.7872 82.4354 64.881 82.4181 64.9777 82.4002C66.1527 82.1644 66.8227 81.8605 67.5475 80.8672Z" fill="white"/>
<path d="M8.87947 70.084C8.87947 70.8148 8.45537 71.2859 7.96773 71.8084C7.90233 71.8672 7.83692 71.9261 7.76953 71.9867C7.82096 71.1382 8.32403 70.6734 8.87947 70.084Z" fill="white"/>
<path d="M15.2223 62.9492C15.327 63.0015 15.4316 63.0539 15.5395 63.1078C15.463 63.1824 15.3866 63.257 15.3078 63.3339C15.2077 63.4326 15.1075 63.5313 15.0043 63.633C14.8553 63.7793 14.8553 63.7793 14.7033 63.9285C14.4009 64.2317 14.4009 64.2317 14.1124 64.6934C13.9554 64.6411 13.7985 64.5888 13.6367 64.5348C14.16 64.0116 14.6832 63.4883 15.2223 62.9492Z" fill="white"/>
<path d="M5.709 79.4395C5.76133 79.4395 5.81365 79.4395 5.86756 79.4395C5.91989 79.9627 5.97221 80.486 6.02613 81.0251C6.13078 81.0251 6.23543 81.0251 6.34325 81.0251C6.29092 81.1821 6.2386 81.339 6.18469 81.5008C5.86756 81.3422 5.86756 81.3422 5.76846 81.0944C5.68305 80.5392 5.69964 80.0011 5.709 79.4395Z" fill="white"/>
</svg>
